<svg xmlns="http://www.w3.org/2000/svg" viewBox="0 0 8 8" width="64" height="64"><rect width="8" height="8" fill="#f1f5f9" rx="2"/><rect x="1" y="1" width="1" height="1" fill="rgb(125,56,176)" /><rect x="3" y="1" width="1" height="1" fill="rgb(230,235,185)" /><rect x="5" y="1" width="1" height="1" fill="rgb(230,235,185)" /><rect x="6" y="1" width="1" height="1" fill="rgb(125,56,176)" /><rect x="1" y="2" width="1" height="1" fill="rgb(125,56,176)" /><rect x="2" y="2" width="1" height="1" fill="rgb(230,235,185)" /><rect x="5" y="2" width="1" height="1" fill="rgb(230,235,185)" /><rect x="6" y="2" width="1" height="1" fill="rgb(230,235,185)" /><rect x="3" y="3" width="1" height="1" fill="rgb(230,235,185)" /><rect x="3" y="4" width="1" height="1" fill="rgb(125,56,176)" /><rect x="4" y="4" width="1" height="1" fill="rgb(230,235,185)" /><rect x="5" y="4" width="1" height="1" fill="rgb(230,235,185)" /><rect x="1" y="5" width="1" height="1" fill="rgb(125,56,176)" /><rect x="3" y="5" width="1" height="1" fill="rgb(230,235,185)" /><rect x="5" y="5" width="1" height="1" fill="rgb(230,235,185)" /><rect x="6" y="5" width="1" height="1" fill="rgb(125,56,176)" /><rect x="1" y="6" width="1" height="1" fill="rgb(125,56,176)" /><rect x="2" y="6" width="1" height="1" fill="rgb(230,235,185)" /><rect x="5" y="6" width="1" height="1" fill="rgb(230,235,185)" /><rect x="6" y="6" width="1" height="1" fill="rgb(230,235,185)" /></svg>